<svg width="200" height="200" viewBox="0 0 200 200" fill="none" xmlns="http://www.w3.org/2000/svg">
  <!-- Fond avec gradient -->
  <defs>
    <linearGradient id="gradient1" x1="0%" y1="0%" x2="100%" y2="100%">
      <stop offset="0%" style="stop-color:#2563eb;stop-opacity:1" />
      <stop offset="100%" style="stop-color:#06b6d4;stop-opacity:1" />
    </linearGradient>
    <linearGradient id="gradient2" x1="0%" y1="0%" x2="100%" y2="100%">
      <stop offset="0%" style="stop-color:#1e40af;stop-opacity:1" />
      <stop offset="100%" style="stop-color:#0891b2;stop-opacity:1" />
    </linearGradient>
  </defs>
  
  <!-- Cercle de fond -->
  <circle cx="100" cy="100" r="95" fill="url(#gradient1)" />
  
  <!-- Lettre T stylisée (thermolaquage) -->
  <path d="M 60 50 L 60 80 L 75 80 L 75 130 L 125 130 L 125 80 L 140 80 L 140 50 Z" fill="white" />
  
  <!-- Lettre G stylisée (gestion) -->
  <path d="M 100 70 Q 120 70 120 90 Q 120 110 100 110 L 85 110 L 85 130 Q 100 135 115 130 L 115 100 Q 115 85 100 85 Q 85 85 85 100 L 70 100 Q 70 75 100 70 Z" fill="white" opacity="0.9" />
  
  <!-- Élément décoratif : flamme/four (représentant le thermolaquage) -->
  <path d="M 100 140 Q 90 150 95 160 Q 100 155 105 160 Q 110 150 100 140 Z" fill="#fbbf24" />
  <path d="M 100 145 Q 92 152 95 158 Q 100 154 105 158 Q 108 152 100 145 Z" fill="#f59e0b" />
</svg>
